<svg xmlns="http://www.w3.org/2000/svg"
  width="100%" height="100%"
  x="0px" y="0px" viewBox="0 0 640 766.96" enable-background="new 0 0 640 766.96" xml:space="preserve" ><style>
.path {
  stroke-dasharray: 18000;
  stroke-dashoffset: 18000;
  animation: dash 120s linear alternate infinite;
}

@keyframes dash {
  from {
    stroke-dashoffset: 18000;
  }
  to {
    stroke-dashoffset: 0;
  }
}
</style>
<path class="path" style="stroke:white;stroke-width:5px;fill:#03254c;fill-opacity:0;stroke-opacity:50%" d="M426 515 L426 515 L426 512 L426 508 L426 505 L426 502 L426 498 L426 495 L426 492 L426 488 L425 482 L423 475 L422 469 L421 463 L419 457 L418 450 L412 448 L412 453 L412 457 L412 461 L412 466 L412 470 L412 475 L412 479 L412 483 L412 488 L414 496 L415 502 L416 508 L416 514 L415 521 L413 527 L413 537 L413 540 L419 546 L424 551 L430 557 L432 559 L437 563 L439 565 L442 567 L444 570 L447 572 L449 574 L452 576 L457 579 L459 581 L462 577 L465 574 L469 570 L473 568 L478 566 L483 564 L488 564 L492 563 L494 560 L494 557 L494 554 L490 554 L487 555 L484 556 L481 557 L478 559 L475 559 L472 557 L471 554 L472 551 L475 549 L478 549 L481 548 L484 547 L487 545 L487 542 L488 539 L490 536 L493 534 L496 534 L499 535 L501 532 L503 529 L504 526 L506 523 L508 521 L509 518 L508 513 L510 509 L515 508 L516 505 L518 502 L518 499 L520 496 L524 495 L527 496 L529 498 L530 501 L528 504 L526 506 L524 509 L522 512 L525 514 L527 516 L527 519 L525 522 L523 524 L520 524 L517 522 L515 525 L514 528 L512 531 L510 534 L509 536 L507 539 L508 543 L508 547 L506 551 L503 554 L503 557 L503 560 L504 563 L507 565 L510 566 L513 567 L517 569 L519 566 L521 563 L523 561 L526 561 L529 562 L530 566 L528 569 L526 571 L524 574 L527 577 L530 575 L533 573 L535 571 L538 569 L541 568 L543 566 L546 564 L549 565 L551 567 L551 571 L548 573 L546 575 L543 577 L540 579 L538 580 L535 582 L532 584 L534 588 L536 592 L539 591 L542 591 L545 590 L549 589 L552 588 L555 588 L558 587 L561 586 L564 584 L567 583 L570 583 L573 585 L574 588 L574 591 L572 594 L570 596 L566 596 L563 595 L560 596 L557 596 L554 597 L550 598 L547 599 L544 599 L541 600 L538 601 L538 605 L538 610 L538 615 L537 619 L536 624 L534 628 L533 632 L537 636 L540 638 L542 641 L545 643 L547 645 L551 643 L554 646 L552 650 L555 652 L558 654 L562 658 L564 660 L567 662 L567 665 L565 668 L561 668 L559 666 L556 664 L553 666 L551 664 L552 661 L549 659 L547 657 L544 654 L542 652 L539 649 L537 647 L534 645 L531 643 L527 644 L527 639 L523 643 L519 646 L514 648 L509 650 L504 651 L499 651 L493 651 L488 651 L483 649 L478 647 L476 650 L475 653 L471 654 L469 652 L467 649 L469 646 L470 643 L467 642 L465 639 L463 638 L461 635 L464 633 L467 632 L469 630 L472 628 L476 628 L479 628 L481 627 L483 625 L484 622 L485 619 L487 618 L490 616 L492 613 L491 610 L488 608 L485 608 L483 610 L480 612 L477 611 L473 612 L470 614 L469 617 L467 621 L465 622 L462 624 L459 626 L456 628 L454 625 L453 623 L451 619 L447 621 L443 623 L440 625 L444 633 L444 640 L443 650 L445 654 L447 658 L449 662 L454 663 L458 663 L460 666 L463 671 L461 674 L457 677 L457 682 L460 682 L463 682 L467 682 L470 682 L473 682 L476 682 L480 682 L483 682 L486 682 L490 682 L493 682 L496 682 L501 679 L504 682 L508 682 L511 682 L512 679 L514 677 L517 675 L520 674 L520 671 L520 668 L520 664 L520 661 L520 658 L520 654 L522 652 L526 652 L528 654 L528 658 L528 661 L528 664 L529 668 L529 671 L529 674 L532 676 L535 679 L537 682 L540 683 L541 686 L540 690 L537 691 L533 696 L530 700 L530 704 L530 707 L531 710 L530 713 L528 716 L525 716 L522 715 L520 713 L519 710 L521 707 L521 703 L521 700 L517 698 L515 696 L512 693 L511 691 L508 691 L504 691 L504 695 L501 696 L497 695 L496 690 L493 690 L490 690 L486 690 L483 690 L480 690 L476 690 L473 691 L470 691 L467 691 L463 691 L460 691 L457 691 L449 688 L444 681 L442 674 L442 666 L439 662 L437 659 L435 655 L432 657 L428 659 L423 660 L419 660 L415 658 L411 656 L408 654 L406 650 L403 647 L400 649 L398 651 L395 652 L392 654 L389 656 L386 657 L383 659 L381 662 L379 664 L375 665 L372 664 L370 662 L369 658 L370 655 L372 653 L375 652 L379 651 L382 650 L385 648 L387 646 L390 645 L393 643 L396 641 L399 640 L400 636 L401 632 L402 628 L404 625 L407 621 L409 619 L414 618 L412 615 L411 612 L409 609 L407 607 L406 604 L404 601 L405 598 L408 596 L411 597 L413 599 L415 602 L417 605 L418 608 L420 611 L422 614 L426 615 L431 616 L435 618 L439 615 L443 613 L447 611 L451 607 L451 604 L451 600 L452 597 L453 593 L453 588 L451 586 L447 586 L446 583 L444 581 L441 578 L439 576 L436 574 L434 572 L431 570 L427 569 L427 566 L424 563 L422 567 L421 570 L419 573 L417 576 L414 578 L411 580 L407 580 L404 581 L400 580 L397 579 L394 577 L391 575 L389 572 L387 569 L386 566 L385 562 L382 562 L379 562 L377 560 L377 556 L379 554 L382 554 L385 554 L388 550 L392 546 L395 544 L400 542 L404 540 L404 537 L400 538 L396 538 L392 540 L388 541 L384 542 L379 543 L374 544 L369 544 L364 544 L359 544 L356 544 L353 544 L349 544 L346 544 L343 543 L342 540 L343 536 L346 535 L349 535 L353 535 L356 535 L359 535 L363 533 L366 532 L369 530 L372 529 L375 528 L378 527 L381 526 L385 526 L388 526 L391 525 L394 525 L398 526 L401 526 L404 527 L402 521 L401 515 L401 508 L401 502 L402 496 L403 488 L403 483 L403 479 L403 475 L403 470 L403 466 L403 461 L403 457 L403 453 L403 448 L402 439 L402 433 L402 428 L401 421 L399 415 L398 408 L397 401 L392 401 L392 404 L392 407 L392 411 L393 414 L393 417 L392 421 L392 424 L392 427 L392 431 L394 433 L394 437 L392 440 L389 442 L385 442 L382 440 L381 437 L381 433 L383 431 L383 427 L383 424 L383 421 L381 417 L381 414 L383 411 L383 407 L383 404 L383 401 L378 401 L373 400 L368 401 L366 404 L368 407 L366 410 L368 413 L368 417 L366 419 L363 421 L360 421 L357 419 L356 417 L356 413 L357 410 L356 407 L357 404 L356 401 L352 398 L350 401 L348 403 L346 406 L344 408 L342 411 L339 418 L340 426 L339 433 L336 440 L336 447 L336 450 L336 454 L336 457 L336 460 L336 463 L336 467 L336 470 L336 473 L336 477 L336 480 L336 483 L336 487 L342 489 L346 493 L347 499 L350 499 L353 499 L357 499 L359 497 L363 497 L366 500 L369 500 L372 499 L375 501 L376 504 L375 507 L372 509 L369 509 L366 509 L363 513 L359 513 L357 508 L353 508 L350 508 L347 508 L346 512 L343 515 L339 518 L335 518 L335 522 L335 525 L332 527 L329 527 L327 525 L326 522 L326 518 L320 515 L317 509 L314 507 L310 507 L307 507 L304 507 L301 508 L298 506 L297 503 L298 500 L301 498 L304 499 L307 499 L310 499 L314 499 L317 497 L317 494 L318 491 L321 488 L324 487 L327 487 L327 483 L327 480 L327 477 L327 473 L327 470 L327 467 L327 463 L327 460 L327 457 L327 454 L327 450 L327 447 L321 450 L314 453 L307 453 L307 456 L307 463 L310 470 L309 476 L305 482 L299 485 L292 486 L290 489 L288 491 L286 494 L284 497 L282 499 L284 504 L286 509 L285 513 L284 517 L284 521 L284 524 L284 527 L284 531 L284 534 L284 537 L284 541 L284 544 L284 547 L284 550 L285 558 L289 560 L290 564 L293 567 L295 569 L297 571 L302 571 L305 573 L307 576 L306 580 L309 582 L311 584 L314 587 L316 589 L318 591 L322 593 L323 596 L322 599 L320 601 L317 602 L313 601 L312 598 L310 595 L307 593 L305 591 L303 588 L300 586 L297 588 L294 587 L291 585 L290 581 L291 577 L289 575 L286 573 L284 570 L282 574 L279 576 L275 575 L272 574 L269 576 L266 578 L266 582 L263 581 L260 583 L257 585 L255 587 L252 589 L250 592 L248 594 L244 594 L241 593 L240 590 L239 587 L241 584 L243 582 L247 582 L249 580 L252 578 L255 576 L258 574 L261 571 L264 569 L267 567 L268 563 L271 559 L276 558 L273 554 L275 550 L275 547 L275 544 L275 541 L275 537 L275 534 L275 531 L275 527 L275 524 L275 521 L275 517 L272 519 L268 519 L266 521 L265 524 L263 527 L260 528 L257 527 L255 525 L255 521 L257 519 L259 516 L261 514 L260 510 L259 505 L261 502 L263 498 L267 496 L270 495 L275 494 L277 492 L279 489 L281 486 L283 484 L285 481 L283 478 L282 474 L281 471 L282 467 L284 464 L286 461 L289 459 L293 458 L298 456 L298 453 L294 449 L288 444 L284 437 L280 438 L277 439 L274 440 L271 442 L268 443 L266 448 L266 453 L265 458 L264 463 L262 467 L265 469 L267 471 L270 473 L272 475 L275 477 L275 480 L273 483 L270 484 L267 482 L264 480 L262 478 L259 476 L257 474 L252 477 L248 482 L247 487 L246 490 L244 493 L243 496 L242 500 L241 503 L240 506 L240 509 L239 512 L238 516 L235 518 L234 521 L233 524 L231 529 L230 532 L229 535 L228 538 L227 541 L226 544 L226 548 L223 550 L224 554 L221 557 L221 560 L219 563 L219 568 L219 572 L222 574 L223 578 L222 582 L220 585 L220 588 L220 592 L221 595 L220 598 L220 602 L220 605 L220 608 L222 612 L223 617 L222 622 L220 625 L220 629 L220 634 L220 637 L220 640 L220 644 L222 647 L221 650 L219 652 L216 653 L213 652 L211 650 L210 647 L211 644 L211 640 L211 637 L211 634 L208 631 L211 629 L211 625 L208 621 L207 617 L208 612 L211 608 L211 605 L211 602 L211 598 L209 595 L211 592 L211 588 L211 585 L209 581 L209 576 L211 572 L211 568 L209 563 L211 560 L210 556 L213 554 L213 550 L215 547 L215 544 L217 541 L219 538 L220 535 L221 532 L222 529 L223 526 L222 522 L225 521 L226 518 L227 515 L227 512 L228 508 L229 505 L232 503 L233 500 L234 497 L235 493 L236 490 L237 487 L238 484 L232 485 L225 484 L218 482 L212 478 L208 473 L204 467 L201 468 L198 469 L195 470 L192 472 L189 473 L185 474 L182 475 L179 476 L176 477 L174 479 L170 479 L167 477 L166 474 L167 471 L170 469 L173 469 L176 468 L179 467 L182 466 L185 464 L189 463 L192 462 L195 461 L198 460 L201 459 L200 455 L200 451 L201 447 L202 443 L204 436 L201 434 L199 432 L195 432 L193 429 L193 426 L194 423 L197 422 L201 422 L203 425 L206 426 L209 428 L211 424 L215 421 L219 419 L223 418 L221 416 L218 414 L216 412 L213 412 L212 409 L210 406 L207 404 L205 402 L201 401 L199 399 L197 396 L194 394 L192 392 L190 395 L187 398 L182 399 L179 396 L181 391 L183 389 L185 385 L179 385 L180 381 L178 379 L175 377 L173 375 L170 373 L168 371 L165 368 L160 372 L155 373 L149 374 L144 373 L138 370 L134 367 L130 362 L128 357 L128 351 L128 346 L130 340 L128 338 L124 337 L121 336 L122 333 L119 331 L116 329 L114 327 L111 325 L108 324 L105 322 L104 318 L101 316 L99 314 L96 315 L92 314 L89 313 L87 310 L87 307 L87 304 L88 301 L90 297 L90 294 L90 290 L90 286 L90 283 L87 280 L86 276 L83 276 L79 276 L76 278 L72 278 L68 276 L65 276 L62 276 L59 278 L56 279 L53 278 L50 275 L50 272 L50 269 L52 266 L56 265 L59 266 L62 268 L65 268 L68 268 L72 266 L76 266 L79 267 L83 267 L86 267 L90 264 L91 261 L94 260 L97 261 L98 264 L102 268 L103 264 L106 263 L109 264 L110 267 L114 267 L117 266 L120 267 L122 270 L122 273 L120 276 L117 277 L114 276 L110 276 L106 277 L102 276 L102 280 L99 283 L99 286 L99 290 L99 294 L99 297 L102 298 L104 301 L105 304 L104 307 L107 309 L109 312 L113 313 L115 315 L117 318 L120 320 L122 322 L125 324 L127 326 L132 328 L133 331 L136 333 L138 331 L141 330 L144 328 L147 327 L151 327 L154 327 L157 328 L160 329 L163 330 L166 332 L168 334 L170 337 L172 340 L173 343 L174 346 L174 349 L174 352 L173 356 L171 362 L173 364 L176 366 L178 368 L181 370 L183 372 L186 374 L191 378 L198 385 L200 387 L203 389 L206 390 L209 392 L210 395 L213 398 L215 400 L218 402 L221 405 L224 407 L227 409 L229 412 L233 415 L233 411 L233 408 L233 405 L233 401 L233 398 L233 395 L233 392 L233 388 L234 385 L236 383 L239 383 L242 385 L242 388 L242 392 L242 395 L242 398 L242 401 L242 405 L242 408 L242 411 L242 415 L243 419 L250 422 L256 426 L260 431 L265 434 L268 433 L271 432 L274 431 L277 430 L281 429 L282 422 L284 413 L288 407 L286 404 L283 402 L281 400 L278 398 L274 398 L271 397 L269 394 L269 390 L267 388 L264 386 L260 386 L256 384 L253 381 L252 377 L252 373 L253 370 L256 366 L256 362 L256 359 L256 356 L256 353 L256 349 L256 346 L256 343 L256 339 L259 337 L262 337 L264 339 L265 343 L265 346 L265 349 L265 353 L265 356 L265 359 L265 362 L265 366 L269 367 L271 370 L272 375 L270 379 L272 381 L275 384 L279 384 L282 387 L284 391 L287 393 L289 396 L292 398 L294 400 L298 398 L302 396 L307 395 L312 395 L317 395 L321 397 L326 399 L330 402 L335 405 L337 403 L339 400 L341 397 L343 395 L345 392 L349 389 L345 388 L343 385 L340 383 L335 382 L334 378 L331 375 L329 372 L327 370 L323 366 L319 363 L316 361 L314 358 L310 355 L308 359 L306 361 L303 364 L301 366 L299 369 L297 371 L296 374 L294 377 L290 377 L287 376 L286 373 L286 370 L287 367 L290 366 L292 363 L295 360 L297 358 L299 355 L301 353 L303 349 L300 347 L297 345 L295 343 L288 342 L283 341 L279 337 L276 332 L276 326 L273 324 L271 322 L268 320 L266 318 L261 319 L257 320 L252 321 L248 321 L244 321 L240 320 L237 322 L235 325 L233 327 L231 330 L229 332 L227 335 L229 338 L228 342 L226 343 L222 341 L220 344 L218 346 L215 347 L212 346 L210 343 L211 340 L213 338 L215 335 L215 331 L220 329 L222 327 L224 324 L227 322 L229 319 L231 317 L233 314 L229 310 L227 306 L226 301 L226 296 L227 291 L228 286 L226 283 L223 281 L218 284 L212 284 L209 284 L206 286 L207 291 L205 294 L201 296 L198 296 L195 299 L193 301 L192 304 L189 306 L188 310 L185 311 L183 314 L181 316 L178 319 L175 319 L172 317 L172 313 L174 311 L176 308 L178 306 L179 302 L182 300 L183 297 L187 295 L189 293 L191 290 L191 287 L193 284 L196 282 L200 281 L202 278 L199 273 L198 269 L199 265 L201 262 L198 260 L196 258 L193 256 L190 253 L187 253 L185 251 L184 248 L184 244 L186 242 L189 241 L193 241 L195 244 L196 247 L199 249 L201 251 L204 253 L206 255 L211 254 L215 255 L219 256 L222 254 L224 251 L226 249 L228 246 L230 244 L232 241 L234 238 L236 236 L239 233 L241 231 L245 225 L247 223 L246 219 L249 216 L253 217 L255 214 L257 212 L260 209 L262 207 L263 203 L262 197 L263 192 L266 188 L272 185 L272 182 L272 178 L272 175 L269 172 L269 168 L272 164 L272 161 L272 158 L270 154 L270 149 L272 145 L272 142 L272 139 L272 136 L272 132 L270 126 L267 126 L263 126 L260 126 L257 126 L253 126 L251 128 L248 129 L245 128 L242 126 L240 123 L240 120 L242 117 L245 115 L248 114 L251 115 L253 117 L257 117 L260 117 L263 117 L267 117 L270 117 L273 113 L273 110 L273 107 L269 103 L273 99 L273 96 L273 93 L273 89 L270 86 L269 82 L270 79 L272 75 L272 72 L272 69 L272 65 L269 65 L266 65 L262 65 L259 65 L256 65 L253 65 L249 65 L246 65 L243 68 L241 65 L237 65 L234 66 L231 64 L230 61 L231 58 L234 56 L237 56 L241 56 L246 56 L249 56 L253 56 L256 56 L259 56 L262 56 L266 56 L269 56 L272 56 L279 57 L281 63 L281 69 L281 72 L281 75 L284 78 L284 82 L284 86 L281 89 L281 93 L281 96 L281 99 L285 101 L285 105 L281 107 L281 110 L281 113 L286 113 L289 116 L293 116 L296 117 L299 117 L302 117 L306 117 L309 117 L312 118 L315 120 L315 123 L312 126 L309 126 L306 126 L302 126 L299 126 L296 126 L293 127 L289 127 L288 131 L285 133 L281 132 L281 136 L281 139 L281 142 L281 145 L284 148 L284 152 L283 155 L280 158 L280 161 L280 164 L284 166 L286 170 L284 174 L280 175 L280 178 L280 182 L280 185 L284 187 L288 191 L290 195 L290 200 L289 204 L286 208 L282 210 L277 211 L272 211 L268 212 L266 215 L264 217 L262 220 L260 222 L261 226 L258 229 L254 229 L252 231 L255 233 L256 237 L254 240 L250 240 L247 237 L245 239 L243 242 L241 244 L239 247 L237 249 L235 252 L233 254 L230 257 L228 259 L226 262 L228 268 L229 275 L232 277 L234 279 L239 277 L243 275 L248 275 L253 275 L258 277 L262 279 L266 283 L268 287 L270 291 L271 296 L274 296 L278 295 L281 296 L283 299 L283 302 L281 305 L277 306 L274 305 L271 305 L271 311 L274 313 L277 315 L279 317 L282 319 L287 318 L291 318 L294 315 L296 313 L298 310 L299 307 L303 306 L306 308 L307 310 L307 314 L304 316 L302 318 L300 321 L298 323 L301 327 L301 331 L300 336 L303 338 L306 340 L308 342 L312 345 L317 349 L321 352 L323 350 L325 347 L327 345 L325 342 L325 338 L327 334 L331 334 L335 336 L337 334 L339 331 L341 329 L343 326 L345 324 L348 321 L350 319 L351 315 L354 314 L356 311 L358 309 L359 305 L362 304 L360 300 L356 299 L352 297 L348 296 L344 295 L340 293 L337 291 L333 290 L329 288 L325 287 L321 286 L317 285 L313 283 L310 283 L307 283 L303 283 L300 283 L296 286 L293 287 L289 286 L286 284 L283 283 L279 283 L277 280 L277 277 L279 274 L283 274 L286 273 L288 271 L291 269 L294 269 L297 271 L300 274 L303 274 L307 274 L310 274 L313 274 L313 271 L313 267 L313 264 L313 261 L313 258 L313 254 L310 252 L309 249 L310 245 L313 243 L313 240 L313 236 L310 235 L307 233 L306 230 L307 226 L310 224 L313 223 L313 220 L313 217 L313 213 L313 210 L314 207 L317 206 L320 207 L322 210 L322 213 L322 217 L322 220 L322 223 L326 224 L328 228 L328 232 L326 235 L322 236 L322 240 L322 243 L324 246 L324 251 L322 254 L322 257 L322 261 L322 264 L322 267 L322 271 L323 274 L326 272 L329 272 L331 274 L332 278 L334 279 L338 280 L342 282 L346 283 L349 284 L353 286 L357 287 L360 288 L360 285 L360 282 L360 278 L360 275 L360 272 L360 268 L360 263 L360 260 L356 259 L353 256 L351 253 L348 253 L345 253 L342 253 L338 253 L335 254 L332 252 L331 249 L332 246 L335 244 L338 244 L342 244 L345 244 L348 244 L351 244 L353 241 L356 239 L359 236 L359 233 L359 230 L359 227 L359 223 L359 220 L359 217 L359 213 L359 206 L357 203 L356 200 L357 196 L359 192 L359 188 L359 185 L359 182 L362 180 L365 180 L367 182 L368 185 L368 188 L368 192 L370 196 L370 199 L370 203 L368 206 L371 208 L371 211 L368 213 L368 217 L368 220 L368 223 L368 227 L368 230 L368 233 L368 236 L372 239 L375 244 L378 244 L382 244 L385 244 L388 244 L391 240 L394 236 L394 233 L394 230 L391 229 L391 225 L394 224 L394 221 L394 215 L394 212 L394 209 L394 205 L394 202 L390 200 L390 197 L394 196 L394 193 L394 189 L391 188 L389 184 L390 181 L392 179 L392 175 L392 172 L392 169 L392 165 L394 162 L394 159 L394 156 L394 152 L394 149 L391 146 L391 142 L393 139 L393 136 L394 132 L396 130 L399 130 L402 132 L402 136 L402 139 L405 141 L406 144 L405 147 L402 149 L402 152 L402 156 L402 159 L402 162 L404 165 L404 169 L404 172 L404 175 L404 179 L407 181 L408 185 L406 188 L402 189 L402 193 L402 196 L402 202 L402 205 L402 209 L402 212 L402 215 L405 216 L405 220 L403 221 L403 224 L403 230 L403 233 L403 236 L407 236 L409 234 L411 231 L413 229 L416 226 L418 224 L419 220 L421 218 L424 218 L427 219 L429 222 L429 225 L427 228 L424 229 L422 232 L420 234 L418 237 L416 239 L414 242 L416 245 L416 249 L416 253 L415 257 L411 258 L408 260 L405 261 L405 264 L403 267 L404 271 L404 275 L404 279 L404 282 L404 286 L407 286 L409 288 L412 291 L410 294 L407 296 L404 297 L401 296 L399 298 L397 301 L395 303 L393 306 L391 308 L389 311 L386 312 L383 311 L381 308 L382 305 L384 302 L386 300 L388 297 L391 295 L393 293 L395 290 L395 286 L395 282 L395 279 L395 275 L395 272 L395 267 L393 264 L393 261 L391 254 L393 257 L388 253 L385 253 L382 253 L378 253 L375 253 L374 256 L371 258 L369 260 L369 263 L372 265 L369 268 L369 272 L369 275 L369 278 L369 282 L369 285 L369 288 L373 295 L373 303 L369 309 L368 313 L365 314 L363 317 L361 319 L360 323 L356 324 L354 327 L352 329 L350 332 L348 335 L346 337 L344 340 L342 342 L340 348 L334 350 L332 353 L330 356 L328 358 L333 363 L335 366 L339 367 L341 369 L348 374 L350 377 L353 379 L354 382 L358 385 L361 387 L365 387 L369 387 L372 387 L372 382 L372 378 L372 375 L372 372 L372 369 L370 366 L370 362 L372 360 L375 358 L378 358 L381 360 L382 362 L382 366 L381 369 L381 372 L381 375 L381 378 L381 382 L385 387 L392 387 L397 383 L399 380 L401 378 L403 375 L405 372 L408 370 L410 367 L412 365 L414 360 L417 358 L420 355 L422 352 L424 346 L429 343 L431 340 L435 331 L433 322 L434 311 L437 303 L442 294 L441 288 L441 284 L441 281 L441 278 L441 275 L438 272 L441 270 L441 267 L441 259 L441 255 L441 252 L441 249 L441 245 L439 240 L441 235 L441 232 L441 229 L441 225 L441 222 L440 217 L441 213 L441 210 L441 207 L440 204 L441 200 L441 197 L441 194 L441 190 L439 184 L439 179 L441 174 L441 171 L441 168 L441 164 L441 161 L441 158 L441 154 L441 151 L441 148 L441 144 L441 141 L439 138 L441 135 L441 131 L441 128 L441 125 L439 121 L441 118 L437 116 L434 113 L433 108 L434 104 L436 101 L440 98 L444 97 L449 99 L452 101 L454 105 L457 105 L461 105 L464 105 L467 105 L470 102 L472 100 L475 98 L475 95 L475 92 L471 91 L469 89 L467 86 L467 83 L469 80 L471 79 L475 78 L475 75 L475 71 L475 68 L475 65 L475 62 L475 58 L475 55 L475 52 L477 50 L481 50 L483 52 L483 55 L483 58 L483 62 L483 65 L483 68 L483 71 L483 75 L483 78 L487 81 L488 85 L487 89 L483 92 L483 95 L483 98 L486 100 L489 103 L490 106 L490 109 L490 113 L488 116 L486 118 L483 120 L479 120 L476 120 L473 119 L470 117 L467 114 L464 114 L461 114 L457 114 L454 114 L450 118 L451 121 L450 125 L450 128 L450 131 L450 135 L451 138 L450 141 L450 144 L450 148 L450 151 L450 154 L450 158 L450 161 L450 164 L450 168 L450 171 L450 174 L453 173 L456 172 L459 173 L462 176 L465 176 L468 176 L470 173 L473 175 L476 175 L479 175 L483 175 L486 176 L489 176 L493 175 L495 177 L496 180 L495 183 L492 185 L489 184 L486 184 L483 184 L479 184 L476 184 L473 184 L468 184 L465 185 L462 185 L462 187 L460 190 L458 192 L455 192 L452 192 L450 190 L450 194 L450 197 L450 200 L451 204 L450 207 L450 210 L450 213 L451 217 L453 220 L450 222 L450 225 L450 229 L450 232 L450 235 L455 233 L460 231 L465 230 L464 227 L464 223 L463 220 L463 217 L464 214 L467 212 L470 213 L472 216 L472 219 L473 222 L473 225 L474 229 L480 227 L479 224 L479 221 L479 218 L479 214 L479 211 L477 209 L476 205 L476 202 L478 199 L480 197 L484 197 L487 197 L490 199 L491 202 L492 205 L490 208 L488 211 L488 214 L488 217 L488 221 L488 224 L488 227 L492 226 L495 225 L499 225 L503 225 L505 222 L508 219 L511 217 L511 214 L511 210 L511 207 L511 204 L511 200 L511 197 L510 194 L510 187 L508 184 L504 183 L505 179 L503 177 L501 174 L499 171 L497 169 L495 166 L492 164 L491 161 L491 158 L493 155 L496 154 L499 155 L502 158 L502 161 L504 164 L506 166 L508 169 L510 172 L512 174 L514 172 L518 173 L517 176 L515 179 L517 182 L520 180 L523 178 L525 175 L528 174 L531 175 L533 178 L533 181 L531 184 L528 185 L525 187 L528 189 L528 193 L526 196 L522 196 L519 194 L519 197 L519 200 L519 204 L519 207 L519 210 L519 214 L519 217 L523 219 L525 221 L527 224 L530 224 L533 224 L537 224 L540 223 L543 223 L547 224 L550 224 L553 224 L556 223 L559 224 L561 227 L561 230 L559 233 L556 234 L553 233 L550 233 L547 233 L543 234 L540 235 L537 233 L533 233 L530 233 L527 233 L524 237 L520 240 L520 243 L520 247 L519 250 L517 252 L514 252 L511 250 L511 247 L511 243 L511 240 L507 237 L503 233 L499 233 L498 236 L501 238 L503 240 L504 243 L503 247 L501 249 L497 250 L494 249 L492 246 L492 242 L489 241 L489 245 L489 248 L489 251 L489 255 L489 258 L489 261 L492 265 L489 266 L489 270 L491 273 L491 276 L489 279 L486 280 L483 280 L480 279 L478 276 L478 273 L480 270 L480 266 L480 261 L480 258 L480 255 L480 251 L480 248 L480 245 L480 242 L477 242 L475 246 L474 249 L472 252 L470 255 L467 257 L464 257 L461 255 L459 252 L458 249 L456 245 L453 243 L450 245 L450 249 L450 252 L450 255 L450 258 L453 261 L453 265 L450 267 L450 270 L450 275 L450 278 L450 281 L450 284 L455 287 L463 286 L470 286 L477 287 L484 290 L488 293 L492 292 L495 292 L499 290 L502 289 L505 288 L507 284 L511 286 L514 285 L517 284 L520 283 L523 281 L526 280 L529 279 L533 278 L536 274 L539 272 L542 272 L546 273 L549 272 L551 270 L554 269 L557 270 L559 273 L560 276 L558 279 L555 281 L552 280 L549 282 L547 285 L544 287 L541 287 L536 286 L532 287 L529 289 L526 290 L523 291 L520 292 L517 293 L514 294 L514 298 L510 299 L508 296 L505 297 L502 299 L504 302 L498 300 L496 303 L498 307 L499 312 L500 317 L500 322 L499 327 L498 332 L496 336 L495 341 L500 344 L503 345 L506 347 L509 349 L514 352 L521 355 L524 357 L526 359 L529 360 L532 362 L536 358 L542 358 L546 361 L550 361 L555 361 L558 361 L561 361 L564 361 L568 361 L571 361 L574 361 L578 359 L581 361 L582 363 L582 367 L581 370 L578 371 L574 369 L571 369 L568 369 L564 369 L561 369 L558 369 L555 369 L554 373 L551 373 L550 369 L547 369 L547 376 L544 379 L544 383 L544 386 L544 389 L544 393 L544 396 L543 399 L539 400 L536 399 L535 396 L535 393 L535 389 L535 386 L535 383 L535 379 L531 382 L528 381 L525 378 L524 375 L525 372 L528 370 L525 368 L522 366 L519 365 L516 363 L514 365 L511 364 L510 360 L507 362 L504 360 L504 356 L502 355 L499 353 L496 351 L492 352 L491 349 L487 346 L483 349 L477 351 L472 352 L468 353 L463 352 L463 356 L463 359 L463 362 L463 367 L463 371 L463 374 L463 377 L461 379 L457 379 L455 377 L454 374 L454 371 L454 367 L452 365 L455 362 L455 359 L455 356 L455 352 L452 350 L448 348 L444 346 L441 342 L437 346 L435 348 L436 353 L434 357 L429 358 L427 361 L424 363 L419 371 L416 373 L414 376 L412 378 L410 381 L408 383 L406 386 L404 388 L406 394 L410 402 L413 408 L417 413 L422 413 L425 413 L428 413 L431 413 L435 413 L438 413 L441 413 L445 413 L453 413 L460 413 L468 413 L472 413 L475 413 L478 413 L482 409 L485 407 L490 407 L490 403 L490 400 L490 397 L490 393 L490 390 L490 387 L487 385 L486 382 L487 379 L490 378 L488 374 L490 371 L490 368 L493 366 L496 366 L498 368 L499 371 L500 374 L499 378 L502 380 L502 384 L499 387 L499 390 L499 393 L499 397 L499 400 L499 403 L499 407 L504 411 L507 413 L510 413 L514 413 L517 413 L520 413 L522 409 L525 407 L528 409 L528 413 L532 413 L535 413 L537 410 L540 408 L543 408 L546 410 L548 413 L551 413 L555 413 L558 413 L561 413 L568 413 L571 413 L574 413 L577 413 L581 413 L584 413 L587 413 L590 415 L590 419 L587 421 L584 422 L581 422 L577 422 L574 422 L571 422 L568 422 L568 425 L562 425 L561 422 L558 422 L555 422 L551 422 L548 422 L546 424 L543 426 L540 426 L537 424 L535 422 L532 422 L528 422 L525 424 L520 422 L517 422 L514 422 L510 422 L507 422 L504 423 L503 426 L501 429 L499 432 L498 435 L498 439 L501 441 L503 444 L503 448 L501 451 L498 454 L498 457 L498 460 L498 464 L498 467 L501 469 L502 472 L502 476 L500 479 L497 480 L494 481 L491 480 L488 479 L487 476 L486 472 L487 469 L490 467 L490 464 L490 460 L490 457 L490 454 L487 451 L485 448 L485 444 L487 441 L490 438 L490 435 L490 432 L483 428 L478 422 L475 422 L472 422 L468 422 L466 425 L463 428 L459 430 L454 430 L450 428 L447 426 L445 422 L441 422 L438 422 L435 422 L431 422 L428 422 L425 422 L422 422 L422 428 L425 432 L427 437 L431 437 L434 437 L437 437 L440 435 L444 436 L446 438 L447 441 L446 444 L444 447 L440 447 L437 445 L434 445 L431 445 L427 445 L428 449 L430 452 L432 455 L434 458 L436 461 L438 461 L442 461 L445 460 L448 460 L455 461 L458 461 L462 461 L465 461 L468 461 L471 459 L475 460 L477 462 L478 465 L477 468 L475 470 L471 471 L468 470 L465 470 L462 470 L458 470 L455 470 L455 474 L459 476 L461 478 L461 482 L457 485 L457 488 L457 491 L457 497 L457 500 L457 503 L457 507 L457 510 L459 514 L459 518 L457 521 L461 523 L461 527 L459 530 L461 532 L461 535 L458 536 L458 539 L458 542 L458 546 L458 549 L457 552 L455 554 L451 554 L449 552 L449 549 L449 546 L449 542 L449 539 L449 536 L447 530 L445 528 L444 525 L446 522 L449 521 L447 518 L447 514 L445 511 L449 510 L449 507 L449 503 L449 500 L449 497 L445 494 L448 491 L448 488 L448 485 L446 482 L445 478 L448 475 L448 471 L445 471 L442 470 L438 470 L435 470 L435 474 L435 477 L435 481 L435 485 L435 488 L435 492 L435 495 L435 498 L435 502 L435 505 L435 508 L435 512 L435 515 L435 518 L435 522"/>
</svg>
